<svg width="137" height="140" viewBox="0 0 137 140" fill="none" xmlns="http://www.w3.org/2000/svg">
<g filter="url(#filter0_d_1_5)">
<rect y="4" width="128" height="128" rx="20" fill="url(#paint0_linear_1_5)"/>
<g filter="url(#filter1_dd_1_5)">
<path d="M37.72 102V32.88H66.28C66.952 32.88 67.816 32.912 68.872 32.976C69.928 33.008 70.904 33.104 71.8 33.264C75.8 33.872 79.096 35.2 81.688 37.248C84.312 39.296 86.248 41.888 87.496 45.024C88.776 48.128 89.416 51.584 89.416 55.392C89.416 61.024 87.992 65.872 85.144 69.936C82.296 73.968 77.928 76.464 72.04 77.424L67.096 77.856H49.288V102H37.72ZM77.416 102L63.784 73.872L75.544 71.28L90.52 102H77.416ZM49.288 67.056H65.8C66.44 67.056 67.16 67.024 67.96 66.96C68.76 66.896 69.496 66.768 70.168 66.576C72.088 66.096 73.592 65.248 74.68 64.032C75.8 62.816 76.584 61.44 77.032 59.904C77.512 58.368 77.752 56.864 77.752 55.392C77.752 53.92 77.512 52.416 77.032 50.88C76.584 49.312 75.8 47.92 74.68 46.704C73.592 45.488 72.088 44.64 70.168 44.16C69.496 43.968 68.76 43.856 67.96 43.824C67.16 43.76 66.44 43.728 65.8 43.728H49.288V67.056Z" fill="#E4E4E4"/>
</g>
</g>
<defs>
<filter id="filter0_d_1_5" x="0" y="4" width="137" height="136" filterUnits="userSpaceOnUse" color-interpolation-filters="sRGB">
<feFlood flood-opacity="0" result="BackgroundImageFix"/>
<feColorMatrix in="SourceAlpha" type="matrix" values="0 0 0 0 0 0 0 0 0 0 0 0 0 0 0 0 0 0 127 0" result="hardAlpha"/>
<feOffset dx="5" dy="4"/>
<feGaussianBlur stdDeviation="2"/>
<feComposite in2="hardAlpha" operator="out"/>
<feColorMatrix type="matrix" values="0 0 0 0 0 0 0 0 0 0 0 0 0 0 0 0 0 0 0.25 0"/>
<feBlend mode="normal" in2="BackgroundImageFix" result="effect1_dropShadow_1_5"/>
<feBlend mode="normal" in="SourceGraphic" in2="effect1_dropShadow_1_5" result="shape"/>
</filter>
<filter id="filter1_dd_1_5" x="33.12" y="28.28" width="70" height="86.32" filterUnits="userSpaceOnUse" color-interpolation-filters="sRGB">
<feFlood flood-opacity="0" result="BackgroundImageFix"/>
<feColorMatrix in="SourceAlpha" type="matrix" values="0 0 0 0 0 0 0 0 0 0 0 0 0 0 0 0 0 0 127 0" result="hardAlpha"/>
<feOffset dx="4" dy="4"/>
<feGaussianBlur stdDeviation="4.3"/>
<feComposite in2="hardAlpha" operator="out"/>
<feColorMatrix type="matrix" values="0 0 0 0 0 0 0 0 0 0 0 0 0 0 0 0 0 0 0.96 0"/>
<feBlend mode="normal" in2="BackgroundImageFix" result="effect1_dropShadow_1_5"/>
<feColorMatrix in="SourceAlpha" type="matrix" values="0 0 0 0 0 0 0 0 0 0 0 0 0 0 0 0 0 0 127 0" result="hardAlpha"/>
<feOffset dy="4"/>
<feGaussianBlur stdDeviation="2"/>
<feComposite in2="hardAlpha" operator="out"/>
<feColorMatrix type="matrix" values="0 0 0 0 0 0 0 0 0 0 0 0 0 0 0 0 0 0 0.25 0"/>
<feBlend mode="normal" in2="effect1_dropShadow_1_5" result="effect2_dropShadow_1_5"/>
<feBlend mode="normal" in="SourceGraphic" in2="effect2_dropShadow_1_5" result="shape"/>
</filter>
<linearGradient id="paint0_linear_1_5" x1="2.49999" y1="4" x2="106" y2="132" gradientUnits="userSpaceOnUse">
<stop stop-color="#DC23D6"/>
<stop offset="0.496843" stop-color="#A40C8B"/>
<stop offset="1" stop-color="#7D0463"/>
</linearGradient>
</defs>
</svg>
